<svg width="1489" height="59" viewBox="0 0 1489 59" fill="none" xmlns="http://www.w3.org/2000/svg">
<path d="M138.927 33.1234V13.5701H148V46.2993H139.637C134.486 39.8723 129.573 33.259 124.447 26.8138C124.268 26.5896 124.07 26.2859 123.837 26.1386L123.744 46.2993H114.795V13.5701H123.652L138.744 33.0309L138.927 33.1234Z" fill="#7E7F83"/>
<path d="M107.39 13.5701L105.137 20.2499H93.689V26.5049H105.168V32.881H93.689V39.6208H106.835V46.3006H84.6773V13.5701H107.39Z" fill="#7E7F83"/>
<path d="M7.74568 13.5701L18.4798 28.4521L18.665 28.5121L28.8846 13.5701H37.2163V46.3006H28.0816L28.0511 27.1735L20.7671 38.1023L20.5872 38.1675L16.6291 38.1063L9.24719 27.4563L9.07256 27.3547L9.01039 46.3006H0V13.5701H7.74568Z" fill="#7E7F83"/>
<path d="M59.4836 13.0422C70.7919 12.401 78.7585 19.0156 78.568 30.3616C78.3842 41.31 70.4162 47.475 59.5868 46.9706C51.4575 46.5926 44.9567 41.5876 43.5914 33.5614C41.7592 22.7928 48.1753 13.6835 59.4836 13.0422ZM60.4097 19.9032C53.7117 20.2982 52.0422 27.0744 52.9101 32.589C53.6522 37.3034 56.8193 40.4458 61.8715 39.9831C68.449 39.381 69.8143 32.0116 68.7361 26.7343C67.8789 22.5374 64.9605 19.6347 60.4097 19.9032Z" fill="#7E7F83"/>
<path d="M467.425 11.9995C457.802 11.9995 450 19.835 450 29.4995C450 39.1641 457.802 46.9995 467.425 46.9995C477.049 46.9995 484.85 39.1641 484.85 29.4995C484.85 19.835 477.049 11.9995 467.425 11.9995ZM463.997 16.1776C466.815 12.4223 472.73 15.159 471.607 19.8061C471.247 21.296 470.361 21.9638 469.131 22.6962C465.112 25.0915 460.74 27.5308 456.612 29.7378C456.499 29.7978 456.395 29.8919 456.261 29.8767L463.997 16.1776ZM472.965 39.1178C468.825 39.3424 464.6 39.1557 460.443 39.1906C458.358 39.2081 456.748 39.6771 455.015 38.1357C451.425 34.9435 455.26 28.925 459.768 31.0903L473.152 39.0434C473.172 39.1678 473.05 39.114 472.966 39.1185L472.965 39.1178ZM474.896 38.843C473.792 38.2647 472.806 36.9418 472.697 35.6744C472.521 33.626 472.758 31.4371 472.779 29.3887C472.809 26.1685 472.812 22.949 472.852 19.7295L480.783 33.1577C482.582 36.932 478.584 40.7723 474.897 38.8423L474.896 38.843Z" fill="#7E7F83"/>
<path d="M505.162 15.263H492.984V43.5865L505.841 43.5098C511.927 42.8791 515.408 38.5766 516.273 32.7061C517.469 24.5898 514.63 15.5029 505.162 15.263H505.162ZM507.577 39.649C504.297 40.8057 500.196 40.0133 496.755 40.2539V18.5189C498.876 18.5713 501.009 18.4506 503.13 18.5159C507.096 18.6381 510.065 19.3842 511.7 23.3899C513.564 27.9588 513.087 37.7061 507.577 39.6498V39.649Z" fill="#7E7F83"/>
<path d="M594.673 15.3374L584.078 43.5857H587.924L590.234 37.083L603.386 37.1073L605.834 43.5857H609.944L598.599 15.2569L594.673 15.3374ZM591.996 33.8923L596.67 20.2607L601.422 33.8923H591.996Z" fill="#7E7F83"/>
<path d="M524.053 43.5857H539.134V40.3678L539.021 40.2539H527.823V30.6357H538.343L538.456 30.5226V27.3039H527.823V18.632L527.936 18.5189H539.134V15.2623H524.053V43.5857Z" fill="#7E7F83"/>
<path d="M562.738 18.5189H571.41V43.5857H575.18V18.632L575.293 18.5189H584.003V15.2623H562.738V18.5189Z" fill="#7E7F83"/>
<path d="M552.557 40.2539V15.2623H548.787V43.5857H563.039V40.3678L562.926 40.2539H552.557Z" fill="#7E7F83"/>
<path d="M613.046 39.9693C611.967 39.9693 611.092 40.8474 611.092 41.9312C611.092 43.015 611.966 43.8931 613.046 43.8931C614.126 43.8931 615 43.015 615 41.9312C615 40.8474 614.126 39.9693 613.046 39.9693ZM613.048 43.4575C612.21 43.4575 611.53 42.7752 611.53 41.9327C611.53 41.0903 612.21 40.408 613.048 40.408C613.886 40.408 614.566 41.0903 614.566 41.9327C614.566 42.7752 613.886 43.4575 613.048 43.4575Z" fill="#7E7F83"/>
<path d="M484.803 42.678L484.378 41.1723L483.709 41.1624V43.4347H484.162V41.9198L484.542 43.4309C484.714 43.4332 484.974 43.5038 485.052 43.3072L485.444 41.8447V43.4347H485.897V41.1624L485.178 41.236L484.803 42.6773L484.803 42.678Z" fill="#7E7F83"/>
<path d="M481.673 41.1624V41.5419L482.352 41.5411V43.4347H482.804V41.5411L483.484 41.5419L483.483 41.1624H481.673Z" fill="#7E7F83"/>
<path d="M613.45 40.8596C613.116 40.7867 612.568 40.9127 612.206 40.8596V42.9801H612.658V42.1468L613.319 42.2409L613.445 42.9095L613.865 42.9801C613.864 42.6014 613.841 42.1961 613.563 41.9213C614.08 41.7825 613.908 40.959 613.45 40.8596ZM612.657 41.8447V41.2383C613.812 41.0759 613.705 41.9418 612.657 41.8447Z" fill="#7E7F83"/>
<path d="M1071.46 9.99951C1060.42 9.99951 1051.48 18.7301 1051.48 29.4995C1051.48 40.269 1060.42 48.9995 1071.46 48.9995C1082.49 48.9995 1091.44 40.269 1091.44 29.4995C1091.44 18.7301 1082.49 9.99951 1071.46 9.99951ZM1074.58 38.4657C1061.56 43.5296 1057.64 20.4987 1071.13 19.8366C1081.04 19.3499 1083.93 34.8311 1074.58 38.4657Z" fill="#7E7F83"/>
<path d="M1113.96 24.2371H1103.47V11.106H1092.97V48.6627H1103.47V34.4802H1113.96V48.6627H1124.73V11.106H1113.96V24.2371Z" fill="#7E7F83"/>
<path d="M1057.18 11.106H1043.59L1033.76 21.8729V11.106H1023V48.6627H1033.76V35.5303L1045.47 48.6627H1059.33L1042.36 29.0833L1057.18 11.106Z" fill="#7E7F83"/>
<path d="M1200.54 17.8771C1198.63 14.1772 1193.74 11.1048 1189.45 11.1048H1175.59V48.6614H1186.35V37.8932L1194.83 48.6614H1206L1195.26 33.8206C1200.61 29.926 1203.82 24.223 1200.54 17.8758L1200.54 17.8771ZM1186.36 27.1264V19.7726C1194.62 18.8428 1194.63 28.1074 1186.36 27.1264Z" fill="#7E7F83"/>
<path d="M1173.17 25.5511H1162.4V19.7726H1173.17V11.106H1151.91V48.6627H1173.17V39.9962H1162.4V34.3495C1162.78 33.7527 1162.98 34.2176 1163.08 34.2176H1173.03C1173.65 33.8526 1173.17 33.6528 1173.17 33.5606V25.5498V25.5511Z" fill="#7E7F83"/>
<path d="M1137.91 11.106H1127.42V48.6627H1149.75V38.9447H1137.91V11.106Z" fill="#7E7F83"/>
<path d="M256.3 30.3227C256.682 30.0085 257.521 28.2211 257.965 27.6129C258.729 26.565 259.738 25.7584 260.532 24.7709C261.113 24.0477 261.697 23.1923 262.286 22.4337C262.886 21.6588 262.841 21.1013 263.926 20.8455C265.444 20.4873 267.154 20.4327 268.705 20.2411L268.929 20.4001C269.126 21.3475 268.534 22.1703 268.309 22.995C268.167 23.5122 268.16 24.5343 267.857 24.927C267.397 25.5238 266.214 24.8983 265.593 24.9193C265.427 24.9251 265.265 24.9538 265.263 25.1617C265.261 25.4433 266.06 26.6196 266.211 27.0746C266.6 28.2527 266.376 30.8533 268.14 30.8533C269.846 30.8533 269.4 28.6895 269.509 27.5573C269.701 25.5477 270.747 23.631 271.252 21.7718C271.429 21.1185 271.311 19.9126 272.2 19.7698C273.378 19.5811 274.789 20.2957 275.968 19.5744C276.082 19.8417 275.859 20.2334 275.748 20.4978C274.954 22.3906 273.697 24.0046 273.231 26.0726C272.945 27.3408 272.698 29.2422 274.527 29.202C275.948 29.1704 275.497 28.4165 276.109 27.5554C277.094 26.1703 279.684 22.9299 280.917 21.9145C281.467 21.4614 281.744 21.3618 281.536 22.2555C281.434 22.6933 280.965 23.8906 280.775 24.3513C280.556 24.8801 279.666 26.3466 279.694 26.7853C279.735 27.4117 280.701 27.7738 281.232 27.7575C282.122 27.7297 282.269 26.9309 282.756 26.359C282.961 26.1186 283.412 25.6694 283.651 25.449C283.884 25.2335 285.3 24.018 285.538 24.2575C285.263 25.5496 284.293 28.134 286.012 28.7958C287.806 29.4865 288.663 28.2853 290.002 27.5861C291.333 26.8926 291.015 27.2824 291.856 28.0334C292.335 28.4615 292.765 28.5564 293.407 28.4568C294.866 28.2288 298.348 24.9864 299.545 23.8772C300.104 23.359 300.501 22.6128 301.286 22.4413C301.387 24.3609 299.656 25.8887 299.882 27.8313C300.055 29.3121 301.222 29.0324 301.87 28.0516C303.074 25.6023 303.819 22.0936 305.451 19.9241C306.647 18.335 306.615 19.811 307.577 20.0304C308.345 20.2057 308.853 19.79 309.536 19.7593C309.738 19.7507 310.044 19.7009 310.138 19.9202C310.377 20.6549 308.844 23.8283 308.546 24.7805C308.283 25.6234 307.643 27.8734 308.169 28.5822C308.589 29.1483 309.806 28.7068 310.076 28.1483C310.335 27.6129 310.193 26.9989 310.27 26.4328C311.47 22.7124 313.404 19.2899 314.829 15.6567C314.807 15.0543 314.26 14.719 313.689 14.6912C312.661 14.6424 312.574 15.31 311.944 15.8933C311.274 16.514 309.371 18.0026 308.505 18.0495C307.212 18.1194 307.896 16.401 306.569 16.0773C305.705 15.8665 305.719 17.1405 304.927 17.1893C304.815 17.1702 304.648 15.7516 303.547 16.0801C302.822 16.2966 302.63 17.4211 302.214 17.9786C300.18 19.9049 298.167 22.6837 296.056 24.45C295.711 24.7393 294.165 25.8408 293.796 25.7891C293.125 25.6933 293.754 25.0056 293.978 24.7335C296.205 22.0362 299.147 20.1482 299.215 16.0782C299.235 14.9 298.588 13.8809 297.327 14.3636C295.772 14.9604 293.432 18.3014 292.718 19.8244C292.057 21.2363 291.655 23.4471 290.723 24.5889C290.298 25.108 288.576 26.542 287.968 26.6799C287.878 26.7 287.795 26.7355 287.702 26.7C287.508 26.6722 287.466 26.4721 287.46 26.2996C287.422 24.9797 289.283 21.7613 289.759 20.266C290.061 19.3168 290.712 17.2459 289.022 17.6079C287.552 17.9221 286.193 20.6367 284.831 21.3867C284.358 21.3628 285.122 19.2009 285.154 18.9432C285.303 17.7535 285.025 15.7094 283.369 16.4652C282.997 16.6357 281.669 18.1903 281.25 18.6194C280.14 19.7612 279.281 20.7938 278.229 21.9614C277.898 22.3302 277.723 22.8542 277.194 23.0161C276.964 23.0592 277.047 22.8657 277.094 22.7239C277.45 21.6559 278.827 19.2545 279.464 18.242C280.014 17.3656 281.373 15.9412 281.397 14.9364C281.417 14.0791 280.73 13.8004 280.032 14.1347C278.775 14.7353 277.114 18.8857 276.615 18.9863C276.226 19.0639 276.047 18.2842 275.867 18.0495C275.103 17.0524 272.873 18.5227 272.712 17.1376C272.572 15.9432 274.012 12.2218 274.384 10.7994C274.601 9.96892 275.104 8.25146 275.163 7.48038C275.241 6.48994 274.835 6.35009 274.033 5.99951H273.844C272.498 6.43055 272.013 7.61448 271.158 8.58193C270.49 9.33769 269.664 9.93348 268.986 10.6825C267.696 12.1078 266.295 13.9249 265.129 15.4719C264.409 16.4278 263.196 18.7852 262.093 19.085C261.742 19.1808 260.86 19.2938 260.499 19.2957C259.516 19.2986 258.567 18.6482 257.618 18.8522C257.056 18.9729 256.661 19.4777 256.918 20.0505C257.228 20.743 259.736 20.9509 260.354 21.3522C260.443 21.6396 259.113 23.3015 258.847 23.6339C257.622 25.1626 255.898 26.6904 254.796 28.2269C254.435 28.7317 253.915 29.4903 254.45 30.0554C254.811 30.4367 255.885 30.6627 256.298 30.3227H256.3ZM296.355 17.8704C296.911 17.6999 296.892 18.1012 296.789 18.5045C296.659 19.0141 295.504 20.8455 295.06 21.0553C294.838 21.1607 294.573 21.0792 294.51 20.8427C294.368 20.3072 295.84 18.0275 296.354 17.8704H296.355ZM267.241 16.2736C268.166 15.1472 269.06 13.8531 270.025 12.786C270.167 12.628 270.979 11.7774 271.079 11.7496C271.453 11.6442 271.408 12.0858 271.372 12.3339C271.229 13.3128 270.423 16.6357 270.026 17.471C269.541 18.4911 268.797 18.0505 267.867 18.1501C267.46 18.1941 265.781 18.8359 265.828 18.0054C265.846 17.6874 266.967 16.6089 267.242 16.2736H267.241Z" fill="#7E7F83"/>
<path d="M299.567 40.4914C299.523 39.8238 299.103 39.0575 298.34 39.1887C296.697 39.4713 293.592 43.3286 292.331 44.5748C292.134 44.7693 290.81 45.9829 290.68 45.958C290.449 45.7837 290.532 45.5222 290.579 45.2836C290.873 43.7731 292.669 41.2884 292.518 39.8851C292.402 38.8085 291.167 38.6236 290.341 39.0201C289.704 39.3267 287.49 41.5853 286.904 42.2271C285.406 43.8679 284.334 45.9292 282.896 47.5308C282.711 47.7377 282.092 48.4159 281.816 48.346C281.658 48.2415 281.703 48.1994 281.71 48.0576C281.749 47.2885 283.435 44.434 283.92 43.5968C284.274 42.9857 285.606 41.4273 285.303 40.7932C285.084 40.3353 284.365 40.9799 284.026 40.7501C283.805 40.5997 283.937 39.9244 283.646 39.6054C282.652 38.5134 280.427 39.2807 279.16 39.4416C277.672 39.6303 275.53 39.9876 274.081 39.8372C272.969 39.7223 273.653 38.8688 273.984 38.2107C274.457 37.2692 275.045 36.3458 275.598 35.4482C275.913 34.9358 277.448 33.1896 276.463 32.7384C276.347 32.6857 275.062 32.4971 274.834 32.4789C273.23 32.3495 273.638 33.272 273.108 34.3582C272.644 35.3055 271.799 36.3285 271.282 37.3831C270.849 38.2673 270.775 39.4157 269.746 39.841C267.935 40.5901 262.105 38.9933 264.68 42.9627C265.86 44.7817 266.429 42.5049 267.522 42.2692C267.923 42.183 268.983 42.0824 269.039 42.661C269.059 42.8717 268.2 44.5164 268.049 44.9072C267.775 45.616 267.211 48.0069 266.711 48.3373C266.289 48.6161 266.075 47.7751 265.643 47.8689C265.297 48.9849 264.022 52.9753 266.308 52.5098C268.077 52.1497 269.108 48.4973 269.775 47.0394C270.473 45.5107 271.251 44.0135 271.955 42.4876C272.199 42.1696 274.656 41.547 275.12 41.5508C275.341 41.5527 275.711 41.614 275.737 41.8947C275.751 42.093 275.647 42.2223 275.544 42.3708C275.159 42.9263 274.006 43.753 273.467 44.3756C272.593 45.3842 271.793 46.6093 271.517 47.9437C270.543 52.6583 275.337 51.801 277.663 49.6812C278.027 49.3488 278.23 48.7693 278.788 48.7214C279.17 48.7856 278.492 50.6583 279.124 51.2655C280.179 52.2799 281.849 51.1697 282.756 50.4466C283.825 49.5941 284.831 48.3709 285.672 47.2846C286.202 46.6007 287.37 44.5365 288.135 44.4264C288.354 44.3947 288.29 44.594 288.275 44.7597C288.144 46.1294 286.765 49.2052 288.09 50.2081C289.189 51.0404 290.775 49.1161 291.485 48.3967C291.894 47.9829 292.418 47.4685 292.802 47.0557C293.309 46.5107 295.275 43.9599 295.721 43.8009C295.846 43.7558 295.972 43.7482 296.102 43.7578C296.265 45.3086 295.132 46.5193 294.686 47.913C294.392 48.8287 293.887 50.9696 294.227 51.8259C294.336 52.1018 294.936 52.7972 295.258 52.7052C295.819 52.5462 296.109 50.4437 296.313 49.8488C297.158 47.3881 299.734 42.9436 299.571 40.4895L299.567 40.4914ZM279.707 44.5873C278.972 45.8727 276.207 48.799 274.715 48.9006C274.269 48.9312 274.103 48.617 274.134 48.2166C274.267 46.5203 278.2 42.1964 279.857 41.9608C281.114 41.7826 280.001 44.0729 279.707 44.5863V44.5873Z" fill="#7E7F83"/>
<path d="M334.99 41.5518C336.009 41.4071 335.834 40.3861 335.133 39.8937C334.444 39.409 333.298 39.5747 332.544 39.8382C331.755 40.114 331.238 40.8228 330.429 40.887C330.192 40.2481 330.541 39.047 330.054 38.5431C329.787 38.2682 329.082 38.4071 328.756 38.5776C328.281 38.8257 327.082 40.6265 326.606 41.1792C325.262 42.7424 323.581 44.1313 322.267 45.6697C322.015 45.9637 320.501 48.3124 320.052 47.8699C319.686 45.5978 322.106 43.4905 322.385 41.4886C322.608 39.8822 321.384 40.887 320.944 40.5096C320.613 40.2251 321.407 39.4732 320.898 38.9349C320.404 38.4128 318.205 38.8372 317.527 39.0489C315.555 39.6638 311.796 44.0078 310.904 45.9091C310.496 46.777 310.228 48.118 309.552 48.7923C308.739 49.6017 308.066 49.1918 307.978 48.1141C307.896 47.0921 308.261 45.9695 308.625 45.0336C310.098 41.2357 312.218 37.4569 314.318 33.9808C314.678 33.386 315.181 32.9396 315.41 32.2202C315.823 30.9252 314.718 30.0602 313.638 30.9012C312.621 31.6934 312.117 33.5191 311.487 34.6484C310.917 35.6695 310.068 36.6015 309.509 37.614C309.263 38.0594 309.031 39.2625 308.43 39.1571C307.949 39.0738 307.547 38.5776 306.805 38.5565C304.713 38.4981 301.484 41.9761 300.362 43.6352C299.173 45.3928 298.371 47.1582 298.554 49.3517C298.677 50.824 299.088 51.3661 300.58 51.3546C302.134 51.3422 303.069 50.5931 304.07 49.4983C304.252 49.3 304.702 48.5375 304.918 48.5375C305.343 48.5375 305.381 49.5778 305.484 49.8795C305.907 51.1113 307.017 51.7339 308.271 51.3652C308.842 51.1975 309.467 50.5395 310.013 50.5452C310.532 50.55 310.865 51.2042 311.257 51.2933C312.754 51.6362 314.841 50.4619 315.859 49.4025C316.261 48.9858 317.087 47.5595 317.638 47.6735C317.966 48.0605 317.7 48.55 317.693 48.9676C317.675 50.1515 317.68 51.777 319.324 51.0979C320.854 50.4657 323.012 48.0117 324.158 46.7272C324.513 46.3296 325.125 45.1984 325.664 45.1955C325.913 46.3392 325.15 47.3325 324.796 48.3306C324.64 48.7703 324.184 50.6027 324.345 50.9322C324.381 51.006 324.475 51.0912 324.554 51.1113C325.215 50.8517 325.849 51.5155 326.359 50.9667C327.163 50.0998 327.953 47.1419 328.62 45.8976C329.42 44.4034 331.32 42.2108 332.948 41.6821C333.665 41.4493 334.299 41.6543 334.993 41.5556L334.99 41.5518ZM302.84 48.4408C301.293 49.6918 301.038 48.0758 301.552 46.753C302.021 45.5461 304.763 41.6476 305.976 41.3861C306.089 41.3621 306.199 41.3478 306.311 41.3861C306.547 41.479 306.574 41.6552 306.572 41.8899C306.559 43.094 303.82 47.6496 302.841 48.4417L302.84 48.4408ZM315.903 45.2884C316.154 45.5451 317.477 44.5087 316.414 46.0452C315.868 46.8325 313.984 48.9341 313.026 48.9312C311.925 48.9283 312.452 47.4293 312.773 46.8469C313.404 45.7051 316.087 42.024 317.186 41.569C317.457 41.457 317.92 41.3152 317.983 41.705C318.116 42.5269 315.696 44.2127 315.904 45.2875L315.903 45.2884Z" fill="#7E7F83"/>
<path d="M315.335 20.3838C314.221 21.7507 313.31 22.813 312.651 24.5467C310.965 28.9893 314.788 29.9424 318.102 28.2566C318.651 27.9778 320.563 26.474 320.861 26.4558C321.323 26.427 321.569 27.3744 321.802 27.6943C323.134 29.52 325.119 27.5698 326.228 26.6493C326.462 26.4548 326.791 26.3542 327.031 26.1253C327.375 25.7987 327.506 25.1904 328.019 25.1186C328.212 25.0918 328.143 25.1339 328.162 25.2613C328.24 25.8044 327.943 26.2977 327.888 26.8025C327.735 28.2192 328.342 28.9185 329.769 28.6148C330.525 28.4539 330.512 27.9223 330.895 27.4625C331.463 26.7824 332.232 26.1722 332.829 25.5036C333.564 24.6818 334.178 23.7488 334.901 22.9203C335.109 22.6818 335.718 21.9231 335.941 21.8714C336.101 21.834 336.185 21.8158 336.177 22.0141C336.163 22.3638 335.915 22.7383 335.824 23.0917C335.452 24.5496 334.738 27.8859 337.314 27.2776C338.044 27.1052 338.439 26.2364 338.908 25.7393C339.69 24.9098 340.523 24.2651 341.318 23.4979C341.756 23.0754 343.124 21.4384 343.461 21.2737C343.577 21.2172 343.682 21.1817 343.813 21.2009C343.627 23.5687 341.275 26.7977 341.877 29.1378C342.086 29.9482 343.035 30.0679 343.414 29.3514C343.753 28.7116 343.901 27.3935 344.241 26.5573C345.324 23.8935 347.914 20.0821 347.586 17.1376C347.501 16.3742 347.034 15.8953 346.24 16.06C345.091 16.2985 343.252 18.7593 342.306 19.6252C341.722 20.1597 341.059 20.5208 340.511 21.1511C340.128 21.5907 339.328 23.1578 338.685 23.0247C338.591 22.972 338.543 22.768 338.538 22.6722C338.504 22.0141 339.967 19.3675 340.276 18.5227C340.529 17.8302 340.846 16.7526 340.419 16.0859C339.186 14.1577 337.412 17.1759 336.601 18.0476C335.491 19.2401 334.241 20.3187 333.204 21.5821C333.041 21.7804 331.636 23.973 331.366 23.6856C331.719 21.8848 332.77 20.3244 333.392 18.6185C333.7 17.7727 334.64 15.2755 332.932 15.4719C332.208 15.5552 331.981 16.4594 331.274 16.5744C330.903 16.6347 330.471 16.4144 330.098 16.4183C329.897 16.4202 329.43 16.5265 329.216 16.584C327.246 17.1156 324.508 20.0371 323.311 21.6865C322.776 22.4241 322.344 23.6099 321.737 24.2009C321.385 24.5448 319.337 25.8446 318.826 26.1253C318.363 26.3791 316.353 27.3025 315.938 27.3083C315.017 27.3217 314.78 26.6933 314.906 25.8791C315.169 24.1894 317.703 20.0457 319.187 19.2258C319.317 19.1539 319.404 19.0581 319.578 19.0974C319.684 19.6434 319.082 19.8723 318.962 20.3379C318.751 21.153 319.65 21.722 320.403 21.4145C320.564 21.3484 321.337 20.4538 321.513 20.2449C321.991 19.6788 323.572 17.6166 323.689 16.9978C323.859 16.0955 322.927 14.8732 321.989 14.8885C320.156 14.9182 318.987 16.9135 317.739 17.948C316.445 19.0208 316.398 19.0783 315.334 20.3848L315.335 20.3838ZM324.201 25.1665C324.313 23.7096 327.597 19.1587 328.986 18.9221C329.555 18.8254 329.349 19.1999 329.215 19.5428C328.759 20.7153 325.886 24.6061 324.907 25.4031C324.421 25.7977 324.136 26.0027 324.201 25.1665Z" fill="#7E7F83"/>
<path d="M259.652 36.1101C260.771 34.7883 263.136 33.8342 264.838 34.0095C266.416 34.1714 265.437 35.3228 266.49 35.7768C268.426 36.6111 271.324 33.6906 268.589 32.5018C265.832 31.3026 259.991 32.3055 257.768 34.3917C254.658 37.3084 255.44 39.6935 257.911 42.6572C259.092 44.0739 261.164 45.5691 260.596 47.6774C259.897 50.2655 255.989 50.9916 253.725 50.7253C253.183 50.6611 251.407 50.3 251.233 49.7138C250.882 48.5289 253.286 47.6936 254.137 47.4858C254.008 47.2339 253.599 47.1323 253.336 47.1046C251.951 46.957 248.305 48.1448 248.031 49.7559C247.624 52.1449 251.371 52.7627 253.054 52.9341C256.188 53.255 259.726 52.3968 262.154 50.3077C265.698 47.2578 264.262 44.6457 261.636 41.7501C260.128 40.0891 257.58 38.5575 259.653 36.1101H259.652Z" fill="#7E7F83"/>
<path d="M347.981 33.976C348.284 33.5133 350.074 31.5976 349.998 31.2279C349.896 30.7394 348.648 30.3955 348.207 30.4759C348.009 30.5123 347.726 30.7499 347.59 30.9032C346.527 32.0986 345.448 34.4511 344.683 35.8908C344.319 36.5737 343.839 37.2711 343.496 37.9387C343.272 38.3745 343.311 39.2203 342.614 38.9176C342.477 38.8583 342.287 38.4588 341.998 38.2922C340.444 37.3937 338.008 39.3793 336.931 40.4598C334.967 42.4302 330.717 48.8881 333.87 51.2167C334.628 51.777 336.138 51.4772 336.934 51.0749C337.375 50.8517 338.348 49.5442 338.665 49.6056C339.326 49.732 338.583 52.8863 340.516 52.1248C341.298 51.8173 343.83 49.6343 344.658 48.9628C344.883 48.7808 345.694 48.2061 345.257 47.9868C344.35 47.5308 341.796 49.1515 341.47 48.9149C341.161 48.6917 341.87 46.6726 342 46.2683C343.182 42.6198 345.874 37.1839 347.981 33.9779L347.981 33.976ZM337.5 47.7281C337.111 48.1678 335.639 49.6889 335.428 48.3891C335.255 47.3268 335.796 46.2453 336.255 45.3181C336.724 44.3689 338.67 41.1332 339.64 40.9091C340.106 40.8018 340.316 40.979 340.397 41.4378C340.692 43.1074 338.596 46.4858 337.5 47.7272V47.7281Z" fill="#7E7F83"/>
<path d="M316.777 12.764C318.04 12.5025 317.948 9.92582 316.065 10.3233C314.733 10.604 314.695 13.196 316.777 12.764Z" fill="#7E7F83"/>
<path d="M738.029 23.7826C737.946 23.6514 738.228 23.2949 738.276 23.1048C738.622 21.7409 737.244 20.8215 736.216 20.2904C737.691 19.4449 736.451 17.8233 735.063 18.0672C735.098 17.8962 735.228 17.795 735.267 17.6089C735.372 17.1119 735.13 16.6236 734.672 16.4086C733.726 15.9642 732.678 16.6531 732.093 17.3737L731.374 18.4712C731.423 16.9576 731.404 15.4331 731.474 13.9248C731.548 13.752 732.107 13.4452 732.291 13.2995C733.503 12.3408 734.665 11.1827 735.49 9.86394C735.73 9.48079 736.334 8.40706 736.332 7.99155C736.329 7.4148 735.922 7.47144 735.587 7.23681C735.519 7.18942 735.172 6.85771 735.149 6.80743C735.059 6.61152 735.225 6.52946 735.21 6.39886C735.189 6.22433 734.994 6.04518 734.899 5.90533C735.165 5.45515 735.124 5.45862 734.804 5.07605C734.245 4.40742 733.154 3.62957 732.375 3.23659C732.164 3.13026 731.936 3.12853 731.717 2.97192C731.505 2.82051 729.754 0.90824 729.713 0.763188C729.608 0.38582 729.878 0.200314 729.323 0.0569954C728.144 -0.246979 726.469 0.721579 725.533 1.39194C724.23 2.32409 723.009 3.67464 722.255 5.09512C721.902 5.75912 721.391 6.85193 721.684 7.59222C721.804 7.89561 722 7.81182 722.221 7.91989C722.481 8.0476 723.877 9.52067 724.076 9.8154C724.397 10.2916 724.6 11.1295 724.907 11.697C725.093 12.042 726.116 13.637 726.453 13.6671L726.848 13.4614C727.113 13.8734 727.319 13.67 727.584 13.7468C727.66 13.7688 728.077 14.2404 728.112 14.3166C728.182 14.4629 728.153 14.6726 728.235 14.8292C728.329 15.0078 728.562 15.1009 728.675 15.3707C729.056 16.2821 728.969 17.5107 729.239 18.4706C729.12 18.4966 729.105 18.4128 729.055 18.3382C728.795 17.9522 728.627 17.561 728.289 17.2004C727.684 16.5537 726.449 15.8128 725.635 16.5075C725.139 16.9311 725.31 17.4379 725.551 17.9222C725.578 17.9765 725.647 17.9643 725.55 18.0389C724.492 18.0106 723.046 18.3163 722.764 19.5206C722.635 20.0737 722.862 20.3395 723.182 20.7435C722.206 21.5005 721.435 22.6534 722.139 23.8797L722.123 23.9543C717.691 26.9166 714.972 32.1396 715.06 37.4991L715 37.6389V38.0429L715.247 40.1331C715.804 42.1251 716.135 44.0744 715.799 46.1462C715.585 47.4655 714.809 49.3009 715.361 50.5838C715.772 51.5368 716.864 51.5703 717.446 50.7405C718.39 49.3957 716.975 46.7894 717.161 45.2597C719.014 48.2289 721.589 50.6596 724.917 51.8685C725.013 51.9581 724.922 52.3331 724.899 52.4886C724.702 53.8345 724.275 55.1989 724.117 56.5547C723.991 57.6348 724.003 58.6189 725.204 59.0004H725.723C726.117 58.8588 726.484 58.5398 726.616 58.1341C727.09 56.6789 725.997 54.0096 725.9 52.4389C725.894 52.3343 725.876 52.2499 725.986 52.191C730.73 53.6282 735.975 52.5597 739.816 49.4731C741.151 48.4011 742.168 47.2095 743.124 45.7977C743.162 45.7416 743.263 45.4105 743.305 45.6937L744.255 49.4766C744.359 49.5974 744.413 49.3945 744.446 49.3171C745.213 47.5314 745.169 46.1196 745.148 44.2524C745.12 41.679 745.778 39.3015 745.67 36.6825C745.451 31.3566 742.589 26.493 738.029 23.7826ZM734.543 25.6591L734.63 25.5724C735.051 25.6088 735.546 25.5227 735.956 25.5724C736.583 25.6487 736.862 26.1907 736.707 26.7866C736.653 26.9923 736.33 27.2258 736.34 27.3228L736.792 28.2278C736.75 28.2694 736.104 28.2504 736.052 28.2186C735.889 28.1192 735.715 27.0824 735.186 27.5725L735.179 28.2284C734.972 28.2024 734.696 28.3058 734.544 28.1417L734.543 25.6591ZM734.486 32.3274L735.094 32.3818L735.173 33.2839C735.249 33.3365 736.111 33.3555 736.215 33.2226V32.328C736.373 32.3003 736.831 32.2269 736.897 32.424L736.881 34.9297L736.28 34.9771L736.21 34.0074C736.183 33.9675 735.304 33.9461 735.251 33.9565C735.191 33.9681 735.155 33.9716 735.12 34.0317V34.984H734.486V32.3274ZM733.938 29.5558H732.958C732.874 29.5558 732.815 29.8581 732.926 29.9344C733.061 30.0286 733.648 29.8523 733.827 30.0135C733.861 30.1944 733.911 30.4626 733.765 30.5949H732.871V30.9411H733.996C734.155 31.0838 734.058 31.3433 734.085 31.5403C734.079 31.5658 733.896 31.634 733.88 31.634H732.266L732.18 31.5473V29.0068L732.295 28.9381L733.99 28.971C734.059 29.0201 734.06 29.4923 733.938 29.5558ZM731.949 25.6302L733.74 25.5978L733.794 26.2081C733.756 26.2462 732.794 26.1954 732.726 26.2243C732.588 26.2832 732.649 26.497 732.64 26.612C733.139 26.6375 733.993 26.4479 733.591 27.2471H732.64V27.6511H733.764L733.842 27.747C733.858 27.8198 733.854 27.8944 733.854 27.9689C733.854 28.0874 733.873 28.2134 733.764 28.2862H732.035L731.948 28.1995L731.949 25.6302ZM731.545 34.9829L730.853 35.0141C730.521 34.6963 730.457 34.038 729.873 34.175V34.9835H729.238V32.328C729.713 32.387 730.375 32.2477 730.824 32.328C731.541 32.4557 731.628 33.6115 730.978 33.9727C731.043 34.123 731.619 34.9078 731.544 34.9835L731.545 34.9829ZM732.584 3.80698C733.186 4.16817 733.862 4.62124 734.313 5.16389C734.367 5.22861 734.452 5.25751 734.427 5.36557C734.27 5.38002 734.269 5.17602 734.097 5.14713C733.996 5.12979 733.91 5.20029 733.823 5.19336C733.708 5.18411 732.785 4.20284 732.667 4.04103C732.609 3.96244 732.56 3.91967 732.584 3.80698ZM722.262 6.83979C722.258 6.3925 722.802 5.37193 723.047 4.96682C723.914 3.53248 725.133 2.30387 726.592 1.47343C727.071 1.20066 728.002 0.738916 728.536 0.701931C728.704 0.690373 728.853 0.744117 728.951 0.890903C728.991 0.950427 729.042 0.935402 728.951 1.00822C725.934 1.71672 723.464 4.20978 722.579 7.15533C722.452 7.34141 722.263 6.99583 722.261 6.83979H722.262ZM726.155 12.8141C725.994 12.6454 725.779 12.3189 725.642 12.1154C725.564 12.001 724.988 11.0683 725.032 11.0238C725.162 11.0371 725.317 11.1636 725.409 11.2515C725.575 11.411 726.207 12.1472 726.239 12.3252C726.283 12.565 726.201 12.7586 726.415 12.9857C726.354 13.0441 726.2 12.8609 726.155 12.8141ZM727.246 13.0487C727.217 13.0291 726.804 12.5546 726.789 12.5229C726.707 12.3483 726.824 12.2414 726.816 12.0941C726.796 11.697 723.47 8.44115 723.017 7.85921C722.555 7.2946 723.144 6.27287 723.445 5.71058C724.443 3.83819 726.085 2.28653 728.074 1.51388C728.423 1.37865 729.034 1.13535 729.358 1.34918L733.416 5.77241C733.643 5.90533 733.857 5.73832 734.086 5.90995C734.128 5.94174 734.47 6.35725 734.478 6.3873C734.494 6.45087 734.397 6.76178 734.357 6.7953C734.317 6.82939 734.117 6.85366 734.025 6.89585C731.795 7.92046 730.127 9.25252 728.732 11.2937C728.368 11.8265 727.967 12.3917 727.848 13.0366C727.642 13.0274 727.428 13.173 727.246 13.0487ZM728.429 13.5625C728.075 13.5492 728.051 13.1741 728.126 12.8817C728.612 10.9781 732.221 7.598 734.114 7.10216C734.3 7.05304 734.797 7.00392 734.71 7.34777C734.689 7.43387 733.769 7.84707 733.582 7.95456C732.555 8.54228 731.594 9.35539 730.774 10.1945C729.815 11.1758 728.943 12.2761 728.429 13.5625ZM728.976 25.6839C729.047 25.5839 729.49 25.5995 729.589 25.7128C729.819 25.9752 729.957 27.1628 730.162 27.5349C730.251 27.5268 730.251 27.4477 730.274 27.3876C730.488 26.8351 730.574 26.2277 730.823 25.6862L731.432 25.6573L730.671 28.1903L730.625 28.2596L729.752 28.2504L728.963 25.9341L728.976 25.6839ZM728.951 28.9785H729.586L729.643 29.9598H730.594L730.681 29.8731V28.9785C730.838 29.0074 731.307 28.897 731.364 29.0733C731.325 29.7905 731.445 30.6169 731.376 31.3202C731.335 31.7328 730.985 31.7154 730.681 31.5479V30.6533H729.643V31.4906C729.643 31.5068 729.584 31.6253 729.546 31.6369C729.351 31.6137 729.092 31.7068 728.951 31.5484V28.9785ZM727.798 31.4901C727.794 31.5184 727.737 31.6282 727.701 31.6363L727.131 31.5802L727.098 29.6217L726.393 29.5478C726.258 29.5079 726.269 29.112 726.324 29.0323C726.409 28.9086 728.214 29.0074 728.51 28.986C728.667 29.0375 728.6 29.4044 728.597 29.5472L727.798 29.6131C727.732 30.1823 727.887 30.9463 727.798 31.4901ZM726.932 32.3552C727.136 32.3269 727.67 32.2598 727.802 32.4101L728.836 34.9823C728.255 35.143 728.019 35.0823 727.905 34.4714C727.669 34.4917 727.019 34.3784 726.872 34.546C726.622 34.8309 726.876 35.1788 726.069 35.0401L726.932 32.3552ZM727.285 25.5539C728.076 25.5539 728.718 26.1965 728.718 26.9888C728.718 27.7811 728.076 28.4237 727.285 28.4237C726.493 28.4237 725.851 27.7811 725.851 26.9888C725.851 26.1965 726.493 25.5539 727.285 25.5539ZM724.324 25.644C724.632 25.5955 725.48 25.6146 725.55 26.0099C725.564 26.089 725.548 26.4681 725.459 26.4941C724.983 26.2607 724.037 26.1214 723.892 26.8264C723.721 27.6563 724.399 28.0111 725.121 27.769C725.378 27.6829 725.645 27.3512 725.553 28.029C725.494 28.4688 724.696 28.5572 724.337 28.4902C722.709 28.1868 722.809 25.8827 724.324 25.644ZM724.368 33.3665H725.233L725.31 33.4619C725.326 33.5347 725.323 33.6092 725.323 33.6838C725.323 33.8022 725.342 33.9282 725.233 34.001H724.339V34.405H725.406C725.422 34.405 725.54 34.4639 725.552 34.5021C725.535 34.6806 725.614 34.9135 725.463 35.0401H723.734L723.647 34.9534V32.413L723.734 32.3263H725.406C725.56 32.3263 725.538 32.9013 725.406 32.9614H724.368C724.25 32.9614 724.25 33.3653 724.368 33.3653V33.3665ZM718.239 46.0861C718.009 45.7682 717.269 44.6725 717.203 44.3518C717.156 44.1172 717.435 42.9377 717.631 42.9001C717.812 42.8654 718.315 43.4896 718.424 43.6479C718.908 44.3495 719.104 45.1314 719.037 45.9832C718.948 47.1182 718.679 46.6952 718.239 46.0861ZM721.917 48.8964C721.728 48.9143 721.544 48.8594 721.38 48.7721C721.14 48.645 720.671 48.1284 720.518 48.0735C720.39 48.0272 720.261 48.1324 720.075 48.0578C719.785 47.9417 719.286 47.284 719.035 47.05C719.132 47.0344 719.205 47.0725 719.286 47.1159C719.735 47.3551 720.286 47.8735 720.77 48.1705C721.08 48.3612 721.49 48.5138 721.785 48.7126C721.86 48.7629 721.942 48.7773 721.917 48.8964ZM729.068 51.8708C728.975 51.965 729.004 52.0968 728.831 52.2118C728.596 52.3672 728.351 52.3823 728.086 52.3031C728.233 52.1107 728.529 52.1367 728.718 51.9841C728.793 51.924 729.141 51.4455 729.297 51.6114C729.435 51.7593 729.114 51.824 729.068 51.8708ZM729.879 51.4143C729.058 51.8847 729.455 50.7873 729.412 50.34L729.849 50.3937C729.841 50.6416 730.032 51.2236 729.879 51.4143ZM730.986 47.5204C731.261 47.5851 731.139 47.833 731.156 47.9371C731.174 48.0474 731.412 48.1047 731.367 48.2786C731.344 48.3641 731.004 48.6421 730.914 48.7536C730.82 48.8692 730.614 49.2316 730.55 49.2841C730.429 49.3853 730.042 49.4072 729.875 49.4731L729.65 47.8943C729.683 47.7718 730.878 47.495 730.986 47.5204ZM729.608 47.5753C729.523 47.5031 729.242 46.1225 729.297 46.0681C729.58 46.171 729.942 45.893 730.19 46.1259C730.207 46.1421 730.396 46.4825 730.418 46.5328C730.463 46.6362 730.43 46.757 730.463 46.8339C730.504 46.9298 730.817 47.3037 730.738 47.3956C730.482 47.3834 729.788 47.7267 729.608 47.5753ZM730.622 49.6476L730.554 50.04C730.097 50.2019 729.859 50.1146 729.932 49.5893L730.622 49.6476ZM730.568 52.2141C730.427 52.1089 730.452 51.85 730.375 51.7425C730.326 51.6743 730.164 51.6616 730.116 51.5108C730.013 51.1802 730.1 50.7133 729.995 50.3735C730.032 50.2192 730.437 50.2995 730.565 50.2828C730.469 50.5659 730.612 51.1375 730.986 51.0225C731.118 50.982 731.198 50.7214 731.43 50.8011L731.66 51.8622C731.647 52.3979 730.912 52.4718 730.568 52.2141ZM731.213 49.9782C731.072 50.0377 730.744 50.1094 730.807 49.8615C730.861 49.6534 731.465 48.9264 731.698 48.9039L731.83 48.9906C731.878 49.1547 731.378 49.9089 731.213 49.9782ZM732.772 45.2169C732.502 45.0909 732.586 44.8632 732.471 44.7078C732.305 44.4847 731.905 44.9597 731.721 45.0609C731.62 45.1163 730.897 45.4249 730.833 45.4186C730.616 45.396 730.509 45.1389 730.502 44.9424C730.494 44.7182 730.67 44.5205 730.338 44.4194C729.862 44.2743 729.268 44.431 728.836 44.6245L728.721 44.2599L728.548 44.2212C728.498 44.2686 728.756 44.8482 728.751 45.0013C728.747 45.1545 728.582 45.2724 728.611 45.3926C728.66 45.5319 728.847 45.5758 728.92 45.6671C729.043 45.8231 729.275 47.0858 729.339 47.3829C729.492 48.0914 729.668 48.8369 729.75 49.5696C729.762 49.6754 729.828 50.0273 729.76 50.0805C729.004 50.4365 728.914 49.6419 728.944 49.079C728.664 49.0148 728.455 48.9207 728.396 48.6103C728.369 48.4687 728.669 48.2694 728.49 47.9741L729.065 47.8296C729.08 47.6371 728.291 48.0116 728.437 47.5464C728.477 47.4279 728.752 47.4655 728.892 47.3667C729.447 46.9766 728.567 46.1439 728.457 45.7821C728.391 45.5654 728.538 45.4429 728.398 45.2077C728.373 45.1649 727.853 44.5858 727.816 44.5639C727.535 44.3974 726.775 44.4824 726.473 44.1345C726.472 44.0599 726.95 43.9473 727.049 43.901C727.135 43.8606 727.192 43.9103 727.164 43.7594C726.915 43.6999 726.595 43.9392 726.383 43.927C726.268 43.9207 726.197 43.7849 726.089 43.7722C726.044 43.767 725.272 43.8698 725.188 43.8872C725.124 43.9004 724.488 44.1137 724.456 44.1356C724.334 44.22 724.361 44.361 724.303 44.3992C724.223 44.4518 724.069 44.4229 724.007 44.465C723.914 44.528 723.907 44.8407 723.866 44.9002C723.837 44.9424 723.617 44.9846 723.536 45.0603C723.45 45.1395 723.424 45.2799 723.334 45.3781C723.124 45.6058 722.78 45.6948 722.598 46.0271C722.564 46.0901 722.324 46.6426 722.322 46.6784C722.307 46.9067 722.594 47.1534 722.552 47.3956L721.861 47.2806C721.835 47.4274 721.883 47.3846 721.976 47.4216C722.416 47.5984 722.533 47.4626 722.671 48.0555C722.673 48.1064 722.325 48.2254 722.279 48.2751C722.169 48.3936 722.281 48.6964 722.018 48.6566C721.792 48.6219 720.653 47.9151 720.39 47.7429C720.169 47.5978 719.16 46.8986 719.105 46.7194C718.873 45.9578 719.859 46.7466 719.958 46.6443C720.005 46.5958 719.969 46.5085 719.886 46.4559C719.75 46.3704 719.261 46.2126 719.218 46.0866L719.209 45.0285C719.288 44.9545 720.165 45.0753 720.246 44.8557C719.892 44.7274 719.519 44.9476 719.148 44.8286L718.868 43.9698L720.477 42.9793C720.378 42.8446 720.38 42.9255 720.286 42.9602C719.959 43.0804 718.977 43.8346 718.728 43.7525C718.657 43.7288 718.437 43.3636 718.345 43.2665C718.119 43.0284 717.866 42.8284 717.626 42.6071L717.767 41.5074C717.948 41.2855 718.02 42.2176 718.033 42.2627C718.144 42.6632 718.498 43.259 718.862 43.4699C719.15 42.4586 719.741 41.5264 719.843 40.4683C719.906 40.4579 719.953 40.4683 719.988 40.5249C720.031 40.5949 720.104 41.3317 720.149 41.5189C720.29 42.1194 720.613 42.7082 720.653 43.3237C720.727 44.483 719.823 45.956 720.255 47.013C720.502 47.6175 721.164 47.8111 721.597 47.276C722.27 46.4438 721.49 44.6823 721.574 43.6733C721.644 42.8412 722.252 42.0731 722.412 41.2219C722.543 40.5261 722.362 39.3483 722.726 38.8224C723.081 38.3075 723.747 38.281 724.264 38.0538C724.793 37.8215 725.786 36.8946 726.262 36.909C726.962 36.9304 726.853 37.8585 726.962 38.3341C727.1 38.9421 727.496 39.3645 727.512 40.0378C727.541 41.2178 726.542 42.6915 727.27 43.7993C727.614 44.3246 728.368 44.3882 728.747 43.871C729.524 42.8094 728.302 40.8283 728.574 39.5414C728.694 38.9773 729.239 38.8386 729.553 38.4428C729.943 37.9492 730.138 36.59 730.699 37.9406C731.004 38.6751 731.01 39.5604 731.288 40.2949C731.805 41.6646 732.71 42.6083 732.969 44.2108C733.002 44.4119 733.199 45.4157 732.773 45.2175L732.772 45.2169ZM733.217 32.9626V34.9835C732.992 35.069 732.764 35.0424 732.551 34.9291L732.524 32.9649L731.83 32.8793C731.737 32.8158 731.717 32.3084 731.92 32.3274C732.176 32.3974 733.839 32.2032 733.967 32.3535C734.06 32.4621 734.05 32.795 733.953 32.8915C733.828 33.0175 733.397 32.9429 733.217 32.9626ZM734.659 45.1718C734.619 45.3666 734.267 44.9967 734.157 44.9805C734.038 44.9632 733.915 45.0759 733.793 45.0025C733.642 44.9112 733.657 44.5436 733.744 44.4015C733.922 44.3899 734.132 44.3547 734.287 44.4471C734.388 44.5072 734.68 45.0603 734.659 45.1718ZM739.213 43.73C738.964 43.9837 738.998 44.2651 738.578 44.4217C738.516 44.4448 738.433 44.409 738.365 44.4373C737.992 44.5945 737.853 45.2233 737.653 45.3429C737.399 45.4954 737.287 45.303 737.122 45.3261C737.004 45.3429 736.874 45.4752 736.707 45.4798C736.514 45.485 736.268 45.4007 736.16 45.2302C736.221 45.0863 736.406 45.0707 736.483 45.0071C736.666 44.8546 736.943 44.4818 737.195 44.5373C736.761 44.9002 736.726 45.3804 737.363 44.995C737.67 44.8095 737.75 44.3992 737.909 44.2142C738.02 44.0871 738.213 44.1195 738.264 44.0495C738.329 43.9594 738.252 43.7704 738.39 43.6398C738.439 43.5936 739.125 43.2133 739.196 43.1931C739.306 43.1619 739.807 43.0792 739.846 43.211C739.914 43.4445 739.376 43.5635 739.212 43.7294L739.213 43.73ZM740.481 42.0847C740.211 41.9391 739.942 42.0916 739.675 42.1419C739.535 41.9888 740.529 41.1017 740.423 40.8145C740.1 41.0248 739.929 41.4426 739.675 41.7102C739.596 41.7934 739.503 41.9362 739.385 41.8894C739.258 41.8553 738.793 41.3508 738.665 41.219C738.036 40.5723 737.281 39.7488 736.735 39.0368C736.668 38.9502 736.582 38.8433 736.645 38.7369C736.687 38.6416 737.269 38.2347 737.392 38.096C737.436 38.0475 737.516 37.9429 737.426 37.8978C737.35 37.8597 736.652 38.5699 736.474 38.6057L735.409 37.2922C735.305 37.6013 736.349 38.6554 736.328 38.7583L735.196 39.6777L735.12 39.8898C735.373 39.739 735.626 39.5679 735.865 39.3957C736.007 39.2934 736.324 38.8924 736.503 38.9918L739.212 42.1101C738.929 42.2997 738.546 42.3228 738.23 42.2303C738.124 42.1997 738.073 42.0806 737.916 42.0789C737.841 42.0783 737.468 42.2188 737.403 42.2638C737.283 42.3465 737.168 42.5892 737.06 42.699C736.804 42.9573 736.553 42.8649 736.684 43.4612C736.818 43.6051 737.282 43.4248 737.309 43.5583L737.165 44.2194L736.694 44.5546C735.78 44.0305 735.89 44.8476 735.58 45.0037C735.476 45.0557 735.378 44.9672 735.276 44.9817C735.158 44.9985 735.052 45.1603 734.889 45.0586C734.854 45.0366 734.514 44.4651 734.499 44.4078C734.36 43.8941 734.793 44.0039 735.005 43.9033C735.096 43.8606 735.191 43.5988 735.318 43.5242C735.452 43.4451 735.632 43.5092 735.696 43.3549C735.448 43.1723 735.262 43.2809 735.031 43.2682C734.918 43.2619 734.825 43.1717 734.699 43.1902C734.567 43.2099 733.885 43.9403 733.905 43.2081C733.911 42.9949 734.473 42.0101 734.587 41.6946C735.048 40.4232 734.879 39.3108 735.011 38.0203C735.176 36.4167 736.597 36.0855 737.45 37.4696C737.819 38.0689 737.905 38.4168 738.491 38.9097C739.052 39.3824 739.834 39.5882 740.281 40.177C740.701 40.7312 740.628 41.4455 740.481 42.0847ZM743.018 45.1736C742.965 45.2319 742.936 45.2793 742.845 45.2597C742.83 45.1094 742.876 44.9239 742.833 44.7806C742.799 44.6656 742.618 44.6147 742.615 44.4818C742.611 44.3073 742.88 44.1333 742.776 43.7993C742.744 43.6993 742.619 43.6808 742.608 43.4994C742.596 43.2983 742.804 43.0267 742.774 42.8706C742.751 42.7498 742.44 42.6088 742.441 42.4603L742.787 41.6807C742.654 41.5386 742.415 42.3696 742.184 42.3725C741.724 42.2766 741.621 42.0367 741.578 41.5935C741.479 40.5873 741.77 40.3007 741.967 39.4443C742.034 39.1553 741.949 38.4093 742.414 38.3838C743.017 38.3509 742.978 39.6309 742.961 40.0343C742.95 40.2868 742.849 40.6469 742.852 40.8948C742.863 41.9217 743.794 44.3298 743.019 45.1736H743.018Z" fill="#7E7F83"/>
<path d="M744.401 49.9649C744.383 49.8655 744.338 49.8031 744.228 49.8204C744.102 50.4671 743.993 51.1219 743.832 51.7616C743.528 52.9682 742.587 55.3006 742.941 56.4489C743.254 57.4597 744.588 57.6429 745.064 56.6333C745.549 55.6092 744.76 53.0006 744.583 51.8021C744.494 51.1993 744.499 50.5347 744.401 49.9649Z" fill="#7E7F83"/>
<path d="M739.402 54.6205C738.459 54.6205 737.694 55.3862 737.694 56.3305C737.694 57.2748 738.459 58.0405 739.402 58.0405C740.345 58.0405 741.11 57.2748 741.11 56.3305C741.11 55.3862 740.345 54.6205 739.402 54.6205ZM739.412 57.6735C737.927 57.6937 737.763 55.2648 739.14 55.0302C740.993 54.7147 741.107 57.6504 739.412 57.6735Z" fill="#7E7F83"/>
<path d="M718.863 47.9151H718.69C718.528 49.8355 717.919 51.6801 717.555 53.5623C717.336 54.6939 716.951 56.8431 718.718 56.8679C720.344 56.891 720.108 54.6684 719.942 53.619C719.641 51.7264 718.959 49.8516 718.863 47.9151Z" fill="#7E7F83"/>
<path d="M727.279 40.9295C727.416 40.7515 726.683 39.8234 726.665 39.5714C726.684 39.4165 727.149 39.2801 727.106 39.1698C727.01 38.9207 726.725 39.3813 726.472 39.2264L725.491 37.6395L725.376 37.6684C725.41 37.9579 726.417 39.2484 726.33 39.4316C725.914 39.6887 722.912 41.5542 722.711 41.4993C722.662 41.486 722.618 41.4299 722.582 41.3929L722.438 41.8535C722.572 41.7934 722.608 41.7876 722.693 41.9154C723.037 42.7602 723.585 43.5531 723.71 44.4749C723.696 44.5252 722.824 44.6575 722.689 44.6754C722.486 44.702 722.274 44.6558 722.075 44.6956C721.951 44.7205 721.778 44.8233 721.954 44.9077L723.721 44.6702C724.048 44.5338 723.726 43.8172 723.634 43.5705C723.496 43.2012 722.797 41.9737 722.837 41.7108C722.845 41.6634 722.856 41.6224 722.897 41.5929L726.446 39.6159C726.752 39.9788 726.855 40.4296 727.13 40.8208C727.178 40.8896 727.132 40.9624 727.279 40.9295Z" fill="#7E7F83"/>
<path d="M730.663 42.384C730.278 42.5586 729.656 42.7418 729.314 42.9388C729.234 42.9851 729.16 43.0111 729.182 43.1238C729.564 42.9775 729.983 42.8758 730.357 42.7129C730.647 42.5863 731.517 42.176 731.738 42.0177C731.817 41.961 731.912 41.9136 731.891 41.7963C731.842 41.7495 730.811 42.3176 730.663 42.384Z" fill="#7E7F83"/>
<path d="M727.477 27.7626C727.557 27.7516 727.722 27.6858 727.78 27.6332C728.172 27.2772 728.074 26.3456 727.527 26.2202C726.253 25.9284 726.156 27.947 727.477 27.7626Z" fill="#7E7F83"/>
<path d="M729.928 32.929L729.879 33.4775C730.844 33.7161 731.076 32.8441 729.928 32.929Z" fill="#7E7F83"/>
<path d="M735.945 26.7311C736.062 26.645 736.068 26.3762 735.971 26.2792C735.882 26.1913 735.321 26.1705 735.232 26.2329L735.184 26.779C735.373 26.8345 735.79 26.8449 735.945 26.7311Z" fill="#7E7F83"/>
<path d="M727.366 33.0203L727.106 33.7705H727.625L727.366 33.0203Z" fill="#7E7F83"/>
<path d="M730.454 48.3514L730.508 48.0307C729.728 47.9128 729.571 48.608 730.454 48.3514Z" fill="#7E7F83"/>
<path d="M739.645 55.3631C739.356 55.3226 738.993 55.3925 738.694 55.3631V57.2684H739.098C739.123 57.2441 739.077 56.7252 739.098 56.605C739.209 55.9826 739.692 57.2285 739.741 57.2592C739.813 57.3042 740.033 57.2493 740.135 57.2684L739.732 56.4917C740.387 56.2657 740.338 55.4602 739.645 55.3631ZM739.717 56.0993C739.635 56.1808 739.241 56.208 739.152 56.1455L739.098 55.7086C739.339 55.6272 740.063 55.7572 739.717 56.0993Z" fill="#7E7F83"/>
<path d="M726.703 5.88568L729.192 8.47236C729.347 8.56193 729.775 8.19381 729.763 8.0528L727.741 4.73104L730.394 7.41827L730.961 7.14897L730.94 6.98253L726.991 3.25913C726.887 3.22966 726.324 3.61165 726.496 3.80756L728.258 6.57685L725.95 4.23751C725.701 4.12598 725.52 4.49063 725.385 4.65187L728.229 9.80962C728.264 9.80962 728.683 9.34267 728.58 9.23345L726.701 5.8851L726.703 5.88568Z" fill="#7E7F83"/>
<path d="M724.972 5.97352L724.663 5.71462C724.519 5.82443 724.37 6.06425 724.406 6.24629C724.46 6.53062 725.347 7.34199 725.407 7.67023C725.419 7.73265 725.128 8.32384 725.143 8.68676C725.179 9.54205 726.638 11.667 727.599 10.7366C727.753 10.588 728.09 10.1315 727.999 9.92866L724.972 5.97352ZM726.86 10.1477C726.492 10.0691 725.794 9.05083 725.778 8.68329C725.771 8.54055 725.816 8.27067 726.002 8.37989C726.126 8.66711 727.222 9.81886 727.207 10.0142C727.196 10.146 726.977 10.1725 726.86 10.1477Z" fill="#7E7F83"/>
<path d="M730.797 5.10494C731.071 5.2604 731.868 5.74641 731.343 6.00415C731.095 6.02785 730.767 5.62852 730.586 5.49098L730.112 5.71925C730.013 5.88857 730.723 6.43584 730.881 6.52253C731.647 6.94266 732.503 6.40406 732.191 5.55686C731.762 4.39586 729.881 4.22538 729.04 3.51688C728.581 3.13026 728.74 2.75058 729.301 3.02451C729.69 3.21406 729.638 3.49954 730.217 3.16898C730.161 2.75925 729.46 2.37784 729.082 2.32005C728.606 2.24723 728.063 2.42407 728.026 2.96729C727.941 4.20631 729.966 4.63338 730.797 5.10494Z" fill="#7E7F83"/>
<path d="M922.999 34.1172C923.001 34.0109 922.911 33.5954 922.871 33.4665C922.237 31.4409 918.917 32.3795 919.629 34.5778C920.213 36.3826 922.903 35.9295 922.999 34.175C923.001 34.1559 922.999 34.1363 922.999 34.1172ZM920.737 35.2568C919.969 34.9112 919.836 33.6988 920.368 33.0978C920.839 32.565 921.759 32.6002 922.192 33.1648C923.002 34.2206 922.032 35.8399 920.737 35.2568Z" fill="#7E7F83"/>
<path d="M858.403 20.2609C858.267 20.4389 858.17 20.655 858.076 20.8573C856.386 24.4842 854.955 28.2452 853.293 31.8871C853.246 32.0096 853.194 32.1154 853.043 32.098L852.811 20.2609H849.093L844.165 32.098L844.019 32.0599L843.558 20.2615H840.849L841.739 35.5643L845.221 35.6087L850.331 23.3197L850.504 23.2619L850.765 35.6186H854.282L861.142 20.2615L858.403 20.2609Z" fill="#7E7F83"/>
<path d="M812.111 23.2631L807.816 32.2119V23.2631H804.328L800.35 32.2124L799.976 23.2631H797.266L798.073 35.618H801.302L805.509 26.3231L805.625 35.618H808.911L814.849 23.2631H812.111Z" fill="#7E7F83"/>
<path d="M907.549 23.2631L903.197 31.7507L902.418 23.2631H898.469L895.962 35.618H898.383L900.4 26.2075L901.262 35.5926C901.354 35.6561 903.257 35.6492 903.488 35.6209C903.552 35.6134 903.615 35.6197 903.659 35.5608L908.472 26.2653L906.455 35.618H909.164L911.643 23.2631H907.549Z" fill="#7E7F83"/>
<path d="M826.696 32.1547L824.161 23.3192L820.852 23.2706L818.135 35.618H820.729L822.661 26.6687L825.113 35.6157H828.509L831.222 23.2631H828.627L826.696 32.1547Z" fill="#7E7F83"/>
<path d="M759.429 25.9659C758.572 25.3291 757.823 24.39 758.535 23.3018C759.559 21.7357 762.786 22.3096 764.201 23.0319L764.924 20.7238C762.475 19.9211 759.272 19.6807 757.031 21.1613C754.975 22.5193 754.502 25.6631 756.422 27.361C757.879 28.6497 761.165 29.2507 760.514 31.8085C760.023 33.7398 757.589 33.8623 755.987 33.5116C755.209 33.3411 754.429 33.0128 753.712 32.6736L752.995 35.0933C756.63 36.5178 763.271 36.4282 763.647 31.3098C763.894 27.9597 761.542 27.5372 759.428 25.9659H759.429Z" fill="#7E7F83"/>
<path d="M774.033 23.2631L772.967 28.1706H768.268L769.306 23.2631H766.596L763.945 35.618H766.625L767.807 30.3065H772.534L771.439 35.618H774.149L776.743 23.2631H774.033Z" fill="#7E7F83"/>
<path d="M793.59 23.3943C791.838 23.0892 789.906 23.3567 788.126 23.2596L785.39 35.6186H788.1L789.192 30.6215C790.449 30.5573 790.971 30.4117 791.301 31.7484C791.611 33.0042 791.789 34.3518 792.078 35.6186H794.902L793.676 30.4672C793.506 29.9823 793.373 29.9344 793.037 29.6194C792.987 29.5732 792.985 29.5784 793 29.4992C794.575 29.4114 795.931 28.1955 796.057 26.5854C796.197 24.7864 795.341 23.6994 793.59 23.3943ZM792.806 27.7459C792.074 28.459 790.673 28.4677 789.713 28.4596L790.293 25.4025C791.032 25.4574 792.822 25.1424 793.161 26.0179C793.378 26.5785 793.242 27.3223 792.806 27.7459Z" fill="#7E7F83"/>
<path d="M890.14 23.2926L883.048 35.6186H885.844L887.352 32.8568L892.033 32.8556L892.445 35.6186H894.982L892.843 23.27L890.14 23.2926ZM888.467 30.7105L890.976 25.8608L891.696 30.7105H888.467Z" fill="#7E7F83"/>
<path d="M780.89 25.4244L785.736 25.399L786.14 23.2631H778.645L775.993 35.618H783.603L784.064 33.4821H779.164L779.863 30.314L784.174 30.3008L784.583 28.1706H780.317L780.89 25.4244Z" fill="#7E7F83"/>
<path d="M919.166 25.8596L919.804 23.6647C917.572 22.6257 913.568 22.7262 912.554 25.4163C912.034 26.7946 912.308 28.2706 913.429 29.2386C914.17 29.8783 916.018 30.5741 916.183 31.5611C916.473 33.2943 914.905 33.8774 913.464 33.6485C912.676 33.5231 911.977 33.118 911.239 32.8464L910.621 35.0719C910.64 35.1915 911.771 35.5076 911.964 35.555C913.667 35.9763 915.897 35.9994 917.368 34.9147C919.182 33.578 919.406 30.5989 917.696 29.064C916.871 28.3232 914.098 27.2564 915.133 25.8064C915.878 24.7639 918.245 25.228 919.165 25.859L919.166 25.8596Z" fill="#7E7F83"/>
<path d="M868.117 23.2631H865.58L863.159 35.618H870.106L870.596 33.4821H866.099L868.117 23.2631Z" fill="#7E7F83"/>
<path d="M874.343 33.4821L876.361 23.2631H873.824L871.345 35.618H878.379L878.818 33.6011L878.753 33.4821H874.343Z" fill="#7E7F83"/>
<path d="M815.945 23.2631L813.35 35.618H816.175L818.769 23.2631H815.945Z" fill="#7E7F83"/>
<path d="M861.084 23.2631L858.605 35.618H861.257L863.678 23.2631H861.084Z" fill="#7E7F83"/>
<path d="M881.953 23.2631L879.532 35.618H882.126L884.605 23.2631H881.953Z" fill="#7E7F83"/>
<path d="M832.665 30.881C834.395 30.8862 836.127 30.9376 837.855 30.8584L838.37 28.3434H833.124L832.665 30.881Z" fill="#7E7F83"/>
<path d="M921.529 33.0776C921.243 33.0354 920.875 33.1082 920.578 33.0776V34.9829H920.982V34.1744C921.515 34.2339 921.351 35.1765 922.019 34.9823L921.559 34.175C922.256 34.0889 922.192 33.1752 921.529 33.0776ZM920.982 33.886L921.038 33.3914L921.591 33.4775C921.736 33.9172 921.304 33.9045 920.982 33.886Z" fill="#7E7F83"/>
<path d="M1480.24 13.9995L1480.33 26.4817C1479.61 25.756 1478.99 25.0766 1478.13 24.4898C1473.16 21.1095 1466.57 23.2515 1463.76 28.2255C1459.88 35.077 1463.85 44.3491 1472.2 44.9875C1472.7 45.025 1473.22 44.9604 1473.72 44.9875L1475.86 44.5037C1477.71 43.8479 1479.23 42.6576 1480.42 41.1469V44.4644H1483.82L1483.73 14.0004H1480.24V13.9995ZM1480.33 34.4684C1480.02 39.5917 1474.56 43.5265 1469.64 40.8125C1463.35 37.3448 1465.17 26.6712 1472.54 26.1586C1477.18 25.8363 1480.59 30.1868 1480.33 34.4675V34.4684Z" fill="#7E7F83"/>
<path d="M1328.96 16.0944H1324.09L1309.57 29.8864V16.0944H1306V44.4635H1309.57V34.3819L1314.53 29.7991L1325.17 44.4635H1329.5L1317.09 27.3235L1328.96 16.0944Z" fill="#7E7F83"/>
<path d="M1451.56 23.3397L1451.51 26.6572L1450 25.0836C1445.25 21.0283 1438.02 22.8289 1434.96 27.94C1430.79 34.8875 1434.81 44.2391 1443.25 44.9883H1444.77C1446.03 44.8792 1447.46 44.3709 1448.55 43.7492C1449.65 43.1222 1450.71 42.2027 1451.38 41.1487L1451.56 41.1923C1451.46 42.2629 1451.38 43.4016 1451.56 44.4644H1454.96V23.4707L1454.82 23.3397H1451.56ZM1451.14 35.9773C1449.63 41.7608 1442.32 43.8845 1438.48 38.8695C1434.98 34.3068 1437.44 26.6004 1443.59 26.1586C1448.87 25.7796 1452.37 31.2653 1451.14 35.9773H1451.14Z" fill="#7E7F83"/>
<path d="M1367.03 23.4271V26.6572C1366.72 26.4476 1366.57 26.0904 1366.32 25.8259C1361.28 20.4781 1352.68 22.8088 1349.86 29.1302C1346.78 36.0227 1350.89 44.3107 1358.81 44.9883H1360.33C1360.69 44.9569 1361.27 44.8259 1361.64 44.7377C1363.84 44.2103 1365.66 42.8794 1367.03 41.1478V44.4653H1370.43V23.3397H1367.25C1367.22 23.3397 1367.12 23.455 1367.03 23.4271ZM1363.36 40.5723C1357.98 43.9858 1352.07 39.2546 1352.37 33.5052C1352.71 27.2292 1359.92 23.4733 1364.68 28.3452C1368.08 31.8381 1367.54 37.9159 1363.36 40.5715V40.5723Z" fill="#7E7F83"/>
<path d="M1485.38 16.7031C1486.01 18.4312 1488.65 18.1588 1489 16.3564V15.6578C1488.28 13.0817 1484.48 14.2143 1485.38 16.7031ZM1487.43 17.5702C1485.2 17.8802 1484.98 14.6544 1487.02 14.4545C1488.92 14.2685 1489.26 17.3143 1487.43 17.5702Z" fill="#7E7F83"/>
<path d="M1417.92 39.9253L1409.38 16.0944H1403.93V44.4635H1407.51V20.8082L1415.92 44.4548L1419.62 44.4705L1428.24 20.8082V44.4635H1431.72V16.0944H1426.36L1417.92 39.9253Z" fill="#7E7F83"/>
<path d="M1399.02 36.6515C1399.02 39.7742 1395.8 41.8193 1392.81 41.5818C1390.45 41.3941 1387.85 39.2494 1387.85 36.8261V31.109H1395.98V27.7051H1387.85V18.8879H1384.36V27.7042H1376.23V23.9947C1376.23 23.8052 1376.52 22.9407 1376.61 22.7058C1377.43 20.596 1379.49 19.3691 1381.77 19.4119V16.0944C1377.79 15.9591 1374.19 18.3893 1373.08 22.1381C1372.85 22.9302 1372.75 23.6969 1372.66 24.5142L1372.66 44.4635H1376.23V31.0208L1384.37 31.1072C1384.49 34.4561 1383.81 37.7404 1385.6 40.7679C1388.89 46.3192 1398 46.3541 1401.27 40.7679C1402.49 38.6853 1402.6 36.5179 1402.5 34.1627H1399.02V36.6515Z" fill="#7E7F83"/>
<path d="M1337.2 23.1406C1335.69 23.538 1334.26 24.4479 1333.25 25.6093V23.4707C1333.17 23.3458 1333.08 23.3502 1332.95 23.3354C1332.03 23.2306 1330.93 23.4314 1329.99 23.3415C1329.92 23.3275 1329.77 23.4244 1329.77 23.4707V44.4644H1333.34V30.8907C1333.34 30.5475 1333.73 29.4227 1333.89 29.07C1335.56 25.5028 1341.29 24.8373 1343.4 28.3129C1343.71 28.8281 1344.24 30.2357 1344.24 30.8033V33.2039H1347.73C1347.88 30.3405 1347.45 27.2423 1345.36 25.0845C1343.37 23.0297 1339.94 22.4246 1337.2 23.1406Z" fill="#7E7F83"/>
<path d="M1460.67 23.3397H1457.1V44.4644H1460.67V23.3397Z" fill="#7E7F83"/>
<path d="M1460.67 16.0944H1457.1V20.1969H1460.67V16.0944Z" fill="#7E7F83"/>
<path d="M1487.82 15.7713C1488.11 14.8745 1487 14.988 1486.41 15.0465V17.0105L1486.77 17.1414C1486.79 16.8786 1486.73 16.5625 1486.77 16.3092C1486.81 16.0202 1487.3 16.256 1487.4 16.3931C1487.59 16.6629 1487.37 17.1607 1487.93 17.0969C1488.02 16.7887 1487.6 16.2507 1487.58 16.1215C1487.56 15.9826 1487.78 15.9041 1487.82 15.7713ZM1486.77 16.0071V15.2212C1487.78 15.1828 1487.82 16.0289 1486.77 16.0071Z" fill="#7E7F83"/>
</svg>
